<svg xmlns="http://www.w3.org/2000/svg" height="800" width="1200" xml:space="preserve" y="0" x="0" id="Layer_1" version="1.1" viewBox="-14.835 -9.3039 128.57 55.8234"><style id="style6412" type="text/css">.st0{fill:#231f20}</style><path id="path6414" d="M13.9 18.5c0 2.5-2 4.5-4.5 4.5s-4.5-2-4.5-4.5 2-4.5 4.5-4.5h4.5zm5-18.5h-5v9.1H9.4C4.2 9.1 0 13.3 0 18.5s4.2 9.4 9.4 9.4 9.4-4.2 9.4-9.4V9.1z" class="st0"/><path id="path6416" d="M68.6 23c2.5 0 4.5-2 4.5-4.5s-2-4.5-4.5-4.5-4.5 2-4.5 4.5c.1 2.5 2.1 4.5 4.5 4.5m-9.3-4.5c0-5.2 4.2-9.4 9.4-9.4s9.4 4.2 9.4 9.4-4.2 9.4-9.4 9.4-9.4-4.2-9.4-9.4" class="st0"/><path id="path6418" d="M93.8 18.5c0-2.4-2-4.4-4.4-4.4-2.4 0-4.4 2-4.4 4.4v9h-4.9v-9c0-5.2 4.2-9.4 9.4-9.4s9.4 4.2 9.4 9.4v9H94c-.2 0-.2-7.8-.2-9" class="st0"/><path id="path6420" d="M47.8 15.3c-.7-.5-.5-1.3.7-1.6 1.5-.4 4.1-.1 6.3.9l2.3-3.2c-1-.8-3.2-1.9-6.4-2.1 0 0-5.4-.7-7.6 3.4 0 0-1.9 3.8 1.9 6.2 2.3 1.4 6.3 2 7.6 2.6 1 .6.7 1.7-.8 2-2.6.6-6-.9-7.1-1.7l-2.4 3.3c1.6 1.2 3.6 2.3 6.8 2.8 0 0 5.1.9 7.9-2.6.5-.6 2.8-4.9-1.8-7.4-2.4-1.3-6.2-1.9-7.4-2.6" class="st0"/><path id="path6422" d="M24.8 31.1c.2.1 2.5 1.7 4.7 1.7 5.4.1 5.7-5.5 5.7-6.8-1 1.1-3.1 1.8-4.4 1.8-5.2 0-9.3-4-9.3-9.2V9.5h4.9v9.1c0 2.4 2 4.4 4.4 4.4 2.4 0 4.4-2 4.4-4.4V9.5h4.9v9.1c0 8.1.4 16.4-7.5 18.3-5.9 1.4-10.1-2.3-10.4-2.5z" class="st0"/></svg>